<svg width="43" height="37" viewBox="0 0 43 37" fill="none" xmlns="http://www.w3.org/2000/svg">
<mask id="mask0_1004_8049" style="mask-type:luminance" maskUnits="userSpaceOnUse" x="0" y="0" width="43" height="37">
<path d="M5.74705 19.855C4.43231 18.5367 2.3008 18.5367 0.985997 19.855C-0.328666 21.1732 -0.328666 23.3106 0.985997 24.6289L12.2306 35.9039C12.8636 36.5387 13.7207 36.8926 14.611 36.8926C14.673 36.8926 14.7354 36.8909 14.7977 36.8873C15.754 36.8341 16.6425 36.375 17.2406 35.6249L41.2746 5.48403C42.4356 4.02766 42.1997 1.90332 40.7474 0.739449C39.2953 -0.425098 37.1767 -0.188377 36.0157 1.26799L14.3313 28.4624L5.74705 19.855Z" fill="white"/>
</mask>
<g mask="url(#mask0_1004_8049)">
<path d="M5.74705 19.855C4.43231 18.5367 2.3008 18.5367 0.985997 19.855C-0.328666 21.1732 -0.328666 23.3106 0.985997 24.6289L12.2306 35.9039C12.8636 36.5387 13.7207 36.8926 14.611 36.8926C14.673 36.8926 14.7354 36.8909 14.7977 36.8873C15.754 36.8341 16.6425 36.375 17.2406 35.6249L41.2746 5.48403C42.4356 4.02766 42.1997 1.90332 40.7474 0.739449C39.2953 -0.425098 37.1767 -0.188377 36.0157 1.26799L14.3313 28.4624L5.74705 19.855Z" fill="#008753"/>
</g>
</svg>
