<svg width="187" height="193" viewBox="0 0 187 193" fill="none" xmlns="http://www.w3.org/2000/svg">
<ellipse cx="93.5" cy="96.3081" rx="93.5" ry="96.2837" fill="white"/>
<path d="M29.0599 106.889L31.4552 105.464C31.4552 105.464 32.8814 99.3593 32.314 93.8701C31.5135 86.1479 26.5787 83.2423 24.7016 83.9087C22.8246 84.5751 22.2818 86.8207 25.3887 91.4192C27.2197 94.1322 29.4709 99.7825 29.0599 106.889Z" fill="#008753"/>
<g opacity="0.65">
<path d="M29.0599 106.889L31.4552 105.464C31.4552 105.464 32.8814 99.3593 32.314 93.8701C31.5135 86.1479 26.5787 83.2423 24.7016 83.9087C22.8246 84.5751 22.2818 86.8207 25.3887 91.4192C27.2197 94.1322 29.4709 99.7825 29.0599 106.889Z" fill="white"/>
</g>
<path d="M30.0541 103.891H30.0295C29.9864 103.882 29.9484 103.857 29.9236 103.819C29.8989 103.782 29.8896 103.736 29.8976 103.692C31.2103 96.554 28.7966 88.5634 25.8032 85.2345C25.7735 85.201 25.7579 85.1568 25.7599 85.1115C25.762 85.0661 25.7814 85.0235 25.8139 84.9929C25.8464 84.9624 25.8894 84.9463 25.9334 84.9484C25.9774 84.9505 26.0188 84.9705 26.0485 85.004C29.0941 88.3929 31.5692 96.5256 30.2228 103.752C30.2154 103.792 30.1944 103.828 30.1634 103.854C30.1325 103.879 30.0937 103.892 30.0541 103.891Z" fill="white"/>
<path d="M23.0274 110.473C22.6717 110.663 21.7178 109.823 21.454 109.621C20.9998 109.265 20.6418 108.795 20.4143 108.256C20.1579 107.645 20.0935 106.967 20.2303 106.317C20.3034 105.974 20.3998 105.636 20.5186 105.306C20.6259 104.99 20.7333 104.656 20.8437 104.327C20.9717 104.012 21.0364 103.674 21.0339 103.332C20.9817 102.65 20.4205 102.145 19.9083 101.706C19.3409 101.219 18.7581 100.591 18.8011 99.7729C18.8755 99.1398 19.1516 98.55 19.5862 98.0958C19.988 97.622 20.4603 97.2051 20.8314 96.703C21.121 96.3487 21.2834 95.9026 21.2915 95.4396C21.2688 95.1568 21.1905 94.8818 21.0615 94.6311C20.7636 94.1078 20.5072 93.5607 20.2947 92.9951C20.1322 92.4139 20.1935 91.7033 20.6474 91.3148C20.8489 91.1772 21.0748 91.0818 21.3122 91.0341C21.5495 90.9864 21.7937 90.9874 22.0306 91.0369C22.4788 91.1179 22.9047 91.2978 23.2789 91.5643C24.5057 92.3508 25.1498 93.9268 26.4594 94.5521C26.9818 94.7491 27.5154 94.9126 28.0574 95.0417C28.3288 95.1088 28.5838 95.2333 28.8061 95.4073C29.0283 95.5813 29.2131 95.801 29.3486 96.0523C29.7902 97.0883 28.818 98.2884 29.1093 99.3781C29.37 100.326 30.2472 100.752 30.7073 101.633C30.8954 102.024 30.9567 102.467 30.8821 102.896C30.8028 103.62 30.5948 104.322 30.2687 104.968C29.9026 105.632 29.498 106.272 29.0572 106.885C29.0572 106.885 23.0826 110.451 23.0274 110.473Z" fill="#008753"/>
<g opacity="0.3">
<path d="M23.0274 110.473C22.6717 110.663 21.7178 109.823 21.454 109.621C20.9998 109.265 20.6418 108.795 20.4143 108.256C20.1579 107.645 20.0935 106.967 20.2303 106.317C20.3034 105.974 20.3998 105.636 20.5186 105.306C20.6259 104.99 20.7333 104.656 20.8437 104.327C20.9717 104.012 21.0364 103.674 21.0339 103.332C20.9817 102.65 20.4205 102.145 19.9083 101.706C19.3409 101.219 18.7581 100.591 18.8011 99.7729C18.8755 99.1398 19.1516 98.55 19.5862 98.0958C19.988 97.622 20.4603 97.2051 20.8314 96.703C21.121 96.3487 21.2834 95.9026 21.2915 95.4396C21.2688 95.1568 21.1905 94.8818 21.0615 94.6311C20.7636 94.1078 20.5072 93.5607 20.2947 92.9951C20.1322 92.4139 20.1935 91.7033 20.6474 91.3148C20.8489 91.1772 21.0748 91.0818 21.3122 91.0341C21.5495 90.9864 21.7937 90.9874 22.0306 91.0369C22.4788 91.1179 22.9047 91.2978 23.2789 91.5643C24.5057 92.3508 25.1498 93.9268 26.4594 94.5521C26.9818 94.7491 27.5154 94.9126 28.0574 95.0417C28.3288 95.1088 28.5838 95.2333 28.8061 95.4073C29.0283 95.5813 29.2131 95.801 29.3486 96.0523C29.7902 97.0883 28.818 98.2884 29.1093 99.3781C29.37 100.326 30.2472 100.752 30.7073 101.633C30.8954 102.024 30.9567 102.467 30.8821 102.896C30.8028 103.62 30.5948 104.322 30.2687 104.968C29.9026 105.632 29.498 106.272 29.0572 106.885C29.0572 106.885 23.0826 110.451 23.0274 110.473Z" fill="white"/>
</g>
<path d="M26.4953 108.613C26.4535 108.609 26.415 108.589 26.388 108.555C26.361 108.522 26.3478 108.48 26.3512 108.437C26.9247 102.031 24.3362 94.7925 22.2996 92.6227C22.2708 92.5917 22.255 92.5502 22.2559 92.5072C22.2568 92.4643 22.2741 92.4235 22.3042 92.3937C22.3343 92.364 22.3747 92.3478 22.4164 92.3487C22.4581 92.3496 22.4977 92.3675 22.5266 92.3985C24.603 94.6093 27.2468 101.971 26.664 108.465C26.6625 108.486 26.6569 108.507 26.6475 108.526C26.6382 108.545 26.6253 108.562 26.6097 108.575C26.594 108.589 26.5758 108.6 26.5562 108.606C26.5366 108.613 26.5159 108.615 26.4953 108.613Z" fill="white"/>
<path d="M25.88 100.718H25.834C24.3778 100.218 22.8734 99.881 21.347 99.7134C21.3265 99.7118 21.3066 99.706 21.2884 99.6964C21.2701 99.6867 21.254 99.6734 21.2408 99.6572C21.2276 99.641 21.2178 99.6223 21.2118 99.6021C21.2058 99.5819 21.2038 99.5607 21.2059 99.5397C21.2065 99.5179 21.2116 99.4965 21.2209 99.4769C21.2301 99.4573 21.2433 99.4399 21.2595 99.4259C21.2757 99.4118 21.2946 99.4015 21.315 99.3956C21.3353 99.3896 21.3567 99.3881 21.3776 99.3912C22.9297 99.5553 24.4598 99.892 25.9414 100.396C25.9754 100.41 26.0035 100.436 26.0208 100.47C26.0381 100.504 26.0437 100.542 26.0364 100.579C26.0292 100.617 26.0097 100.65 25.9812 100.674C25.9526 100.698 25.9169 100.711 25.88 100.711V100.718Z" fill="white"/>
<path d="M157.005 106.889L154.609 105.464C154.609 105.464 153.183 99.3593 153.751 93.8701C154.551 86.1479 159.486 83.2423 161.363 83.9087C163.24 84.5751 163.783 86.8207 160.676 91.4192C158.845 94.1322 156.594 99.7825 157.005 106.889Z" fill="#008753"/>
<g opacity="0.65">
<path d="M157.005 106.889L154.609 105.464C154.609 105.464 153.183 99.3593 153.751 93.8701C154.551 86.1479 159.486 83.2423 161.363 83.9087C163.24 84.5751 163.783 86.8207 160.676 91.4192C158.845 94.1322 156.594 99.7825 157.005 106.889Z" fill="white"/>
</g>
<path d="M156.011 103.892H156.036C156.079 103.883 156.117 103.858 156.142 103.82C156.167 103.783 156.176 103.737 156.168 103.693C154.855 96.5706 157.269 88.5673 160.262 85.2385C160.292 85.2049 160.308 85.1607 160.306 85.1154C160.304 85.07 160.284 85.0274 160.252 84.9968C160.219 84.9663 160.176 84.9503 160.132 84.9523C160.088 84.9544 160.047 84.9744 160.017 85.0079C156.971 88.3968 154.496 96.5295 155.843 103.756C155.851 103.795 155.872 103.831 155.903 103.856C155.934 103.88 155.972 103.893 156.011 103.892Z" fill="white"/>
<path d="M163.038 110.473C163.394 110.663 164.348 109.823 164.611 109.621C165.066 109.265 165.424 108.795 165.651 108.256C165.907 107.645 165.972 106.967 165.835 106.317C165.762 105.974 165.666 105.636 165.547 105.306C165.439 104.99 165.332 104.656 165.222 104.327C165.094 104.012 165.029 103.674 165.031 103.332C165.084 102.65 165.645 102.145 166.157 101.706C166.724 101.219 167.307 100.591 167.264 99.7729C167.19 99.1398 166.914 98.55 166.479 98.0958C166.077 97.622 165.605 97.2051 165.234 96.703C164.944 96.3487 164.782 95.9026 164.774 95.4396C164.797 95.1568 164.875 94.8818 165.004 94.6311C165.302 94.1078 165.558 93.5607 165.771 92.9951C165.933 92.4139 165.872 91.7033 165.418 91.3148C165.216 91.1772 164.991 91.0818 164.753 91.0341C164.516 90.9864 164.272 90.9874 164.035 91.0369C163.587 91.1179 163.161 91.2978 162.786 91.5643C161.56 92.3508 160.916 93.9268 159.606 94.5521C159.084 94.7491 158.55 94.9126 158.008 95.0417C157.737 95.1088 157.482 95.2333 157.259 95.4073C157.037 95.5813 156.852 95.801 156.717 96.0523C156.275 97.0883 157.247 98.2884 156.956 99.3781C156.695 100.326 155.818 100.752 155.358 101.633C155.17 102.024 155.109 102.467 155.183 102.896C155.263 103.62 155.471 104.322 155.797 104.968C156.163 105.632 156.567 106.272 157.008 106.885C157.008 106.885 162.983 110.451 163.038 110.473Z" fill="#008753"/>
<g opacity="0.3">
<path d="M163.038 110.473C163.394 110.663 164.348 109.823 164.611 109.621C165.066 109.265 165.424 108.795 165.651 108.256C165.907 107.645 165.972 106.967 165.835 106.317C165.762 105.974 165.666 105.636 165.547 105.306C165.439 104.99 165.332 104.656 165.222 104.327C165.094 104.012 165.029 103.674 165.031 103.332C165.084 102.65 165.645 102.145 166.157 101.706C166.724 101.219 167.307 100.591 167.264 99.7729C167.19 99.1398 166.914 98.55 166.479 98.0958C166.077 97.622 165.605 97.2051 165.234 96.703C164.944 96.3487 164.782 95.9026 164.774 95.4396C164.797 95.1568 164.875 94.8818 165.004 94.6311C165.302 94.1078 165.558 93.5607 165.771 92.9951C165.933 92.4139 165.872 91.7033 165.418 91.3148C165.216 91.1772 164.991 91.0818 164.753 91.0341C164.516 90.9864 164.272 90.9874 164.035 91.0369C163.587 91.1179 163.161 91.2978 162.786 91.5643C161.56 92.3508 160.916 93.9268 159.606 94.5521C159.084 94.7491 158.55 94.9126 158.008 95.0417C157.737 95.1088 157.482 95.2333 157.259 95.4073C157.037 95.5813 156.852 95.801 156.717 96.0523C156.275 97.0883 157.247 98.2884 156.956 99.3781C156.695 100.326 155.818 100.752 155.358 101.633C155.17 102.024 155.109 102.467 155.183 102.896C155.263 103.62 155.471 104.322 155.797 104.968C156.163 105.632 156.567 106.272 157.008 106.885C157.008 106.885 162.983 110.451 163.038 110.473Z" fill="white"/>
</g>
<path d="M159.569 108.613C159.611 108.609 159.649 108.589 159.676 108.555C159.703 108.522 159.717 108.48 159.713 108.437C159.14 102.031 161.728 94.7925 163.765 92.6227C163.794 92.5917 163.809 92.5502 163.808 92.5072C163.808 92.4643 163.79 92.4235 163.76 92.3937C163.73 92.364 163.69 92.3478 163.648 92.3487C163.606 92.3496 163.567 92.3675 163.538 92.3985C161.461 94.6093 158.818 101.971 159.4 108.465C159.402 108.486 159.407 108.507 159.417 108.526C159.426 108.545 159.439 108.562 159.455 108.575C159.47 108.589 159.489 108.6 159.508 108.606C159.528 108.613 159.548 108.615 159.569 108.613Z" fill="white"/>
<path d="M160.2 100.718H160.246C161.698 100.219 163.197 99.8821 164.718 99.7134C164.738 99.7118 164.758 99.706 164.777 99.6964C164.795 99.6867 164.811 99.6734 164.824 99.6572C164.837 99.641 164.847 99.6223 164.853 99.6021C164.859 99.5819 164.861 99.5607 164.859 99.5397C164.858 99.5179 164.853 99.4965 164.844 99.4769C164.835 99.4573 164.822 99.4399 164.805 99.4259C164.789 99.4118 164.77 99.4015 164.75 99.3956C164.73 99.3896 164.708 99.3881 164.687 99.3912C163.135 99.5553 161.605 99.892 160.124 100.396C160.09 100.41 160.061 100.436 160.044 100.47C160.027 100.504 160.021 100.542 160.028 100.579C160.036 100.617 160.055 100.65 160.084 100.674C160.112 100.698 160.148 100.711 160.185 100.711L160.2 100.718Z" fill="white"/>
<path d="M93.0317 168.707C134.084 168.707 167.364 148.92 167.364 124.512C167.364 100.104 134.084 80.3174 93.0317 80.3174C51.979 80.3174 18.6992 100.104 18.6992 124.512C18.6992 148.92 51.979 168.707 93.0317 168.707Z" fill="#F5F5F5"/>
<path d="M75.919 132.165L97.1213 119.56L70.9289 103.989L49.7266 116.594L75.919 132.165Z" fill="#E0E0E0"/>
<path d="M106.301 159.633L126.032 147.903L106.301 136.173L86.5742 147.903L106.301 159.633Z" fill="#E0E0E0"/>
<path d="M136.404 142.676C145.91 142.676 153.616 138.095 153.616 132.443C153.616 126.791 145.91 122.21 136.404 122.21C126.898 122.21 119.191 126.791 119.191 132.443C119.191 138.095 126.898 142.676 136.404 142.676Z" fill="#E0E0E0"/>
<path d="M46.8859 144.492C58.8717 144.492 68.5882 138.716 68.5882 131.59C68.5882 124.465 58.8717 118.688 46.8859 118.688C34.9 118.688 25.1836 124.465 25.1836 131.59C25.1836 138.716 34.9 144.492 46.8859 144.492Z" fill="#E0E0E0"/>
<path d="M22.7175 42.3129C22.6809 42.3132 22.6449 42.3034 22.6132 42.2845C22.5804 42.2658 22.5532 42.2383 22.5343 42.2049C22.5154 42.1716 22.5056 42.1336 22.5059 42.095V34.8782C22.5056 34.8396 22.5154 34.8016 22.5343 34.7683C22.5532 34.7349 22.5804 34.7074 22.6132 34.6887L28.643 31.104C28.6748 31.0839 28.7115 31.0732 28.7488 31.0732C28.7862 31.0732 28.8228 31.0839 28.8546 31.104C28.8866 31.1234 28.9131 31.1511 28.9314 31.1844C28.9497 31.2176 28.9592 31.2553 28.9589 31.2935V38.5135C28.959 38.5516 28.949 38.589 28.9301 38.6218C28.9112 38.6546 28.8841 38.6816 28.8515 38.6998L22.8248 42.2845C22.7919 42.3031 22.755 42.3129 22.7175 42.3129ZM22.9291 35.0014V41.7192L28.5356 38.3871V31.6693L22.9291 35.0014Z" fill="#E0E0E0"/>
<path d="M22.7175 54.5831C22.6804 54.5839 22.644 54.5728 22.6132 54.5516C22.5807 54.5333 22.5535 54.5064 22.5346 54.4736C22.5157 54.4408 22.5058 54.4033 22.5059 54.3652V47.1452C22.5056 47.1066 22.5154 47.0687 22.5343 47.0353C22.5532 47.002 22.5804 46.9745 22.6132 46.9557L28.643 43.371C28.6754 43.3525 28.7118 43.3428 28.7488 43.3428C28.7858 43.3428 28.8223 43.3525 28.8546 43.371C28.8866 43.3904 28.9131 43.4181 28.9314 43.4514C28.9497 43.4847 28.9592 43.5223 28.9589 43.5605V50.7805C28.9589 50.819 28.9489 50.8569 28.9301 50.8902C28.9112 50.9235 28.8841 50.951 28.8515 50.97L22.8248 54.5484C22.7931 54.5705 22.7558 54.5826 22.7175 54.5831ZM22.9291 47.2842V53.9988L28.5356 50.6668V43.9364L22.9291 47.2842Z" fill="#E0E0E0"/>
<path d="M25.6594 51.2076L24.2578 49.8179L24.724 48.7946L25.5245 49.5842L28.981 42.0547L29.5852 42.6516L25.6594 51.2076Z" fill="#008753"/>
<path d="M22.7175 66.8664C22.6809 66.8667 22.6449 66.8568 22.6132 66.838C22.5808 66.8187 22.5539 66.7911 22.5351 66.7579C22.5163 66.7247 22.5062 66.6869 22.5059 66.6485V59.4127C22.5059 59.3742 22.5158 59.3363 22.5347 59.303C22.5535 59.2698 22.5806 59.2422 22.6132 59.2232L28.643 55.6385C28.6749 55.622 28.7103 55.614 28.746 55.6154C28.7816 55.6167 28.8164 55.6274 28.847 55.6463C28.8776 55.6652 28.9031 55.6918 28.921 55.7236C28.939 55.7553 28.9488 55.7913 28.9497 55.828V63.048C28.95 63.0866 28.9402 63.1245 28.9213 63.1579C28.9024 63.1912 28.8751 63.2187 28.8423 63.2375L22.8248 66.8222C22.7934 66.8463 22.7564 66.8616 22.7175 66.8664ZM22.9291 59.5548V66.2695L28.5356 62.9374V56.207L22.9291 59.5548Z" fill="#E0E0E0"/>
<path d="M163.24 42.2845L157.213 38.6998C157.18 38.6816 157.153 38.6546 157.134 38.6218C157.115 38.589 157.105 38.5516 157.105 38.5135V31.2935C157.105 31.2553 157.115 31.2176 157.133 31.1844C157.151 31.1511 157.178 31.1234 157.21 31.104C157.242 31.0839 157.278 31.0732 157.316 31.0732C157.353 31.0732 157.39 31.0839 157.421 31.104L163.451 34.6887C163.484 34.7074 163.511 34.7349 163.53 34.7683C163.549 34.8016 163.559 34.8396 163.559 34.8782V42.095C163.559 42.1336 163.549 42.1716 163.53 42.2049C163.511 42.2383 163.484 42.2658 163.451 42.2845C163.419 42.3034 163.383 42.3132 163.347 42.3129C163.309 42.3129 163.272 42.3031 163.24 42.2845ZM157.529 31.6693V38.3871L163.135 41.7192V35.0014L157.529 31.6693Z" fill="#E0E0E0"/>
<path d="M163.24 54.5484L157.213 50.9668C157.18 50.9478 157.153 50.9203 157.134 50.887C157.115 50.8537 157.105 50.8159 157.105 50.7773V43.5605C157.105 43.5223 157.115 43.4847 157.133 43.4514C157.151 43.4181 157.178 43.3904 157.21 43.371C157.242 43.3525 157.279 43.3428 157.316 43.3428C157.353 43.3428 157.389 43.3525 157.421 43.371L163.451 46.9684C163.484 46.9871 163.511 47.0146 163.53 47.0479C163.549 47.0813 163.559 47.1193 163.559 47.1579V54.3778C163.559 54.416 163.549 54.4534 163.53 54.4862C163.511 54.519 163.484 54.546 163.451 54.5642C163.42 54.5855 163.384 54.5965 163.347 54.5958C163.307 54.5916 163.27 54.575 163.24 54.5484ZM157.529 43.9364V50.6542L163.135 53.9862V47.2842L157.529 43.9364Z" fill="#E0E0E0"/>
<path d="M163.24 66.8222L157.213 63.2375C157.18 63.2187 157.153 63.1912 157.134 63.1579C157.115 63.1245 157.105 63.0866 157.105 63.048V55.828C157.106 55.7913 157.116 55.7553 157.134 55.7236C157.152 55.6918 157.178 55.6652 157.208 55.6463C157.239 55.6274 157.274 55.6167 157.309 55.6154C157.345 55.614 157.38 55.622 157.412 55.6385L163.451 59.2232C163.484 59.2422 163.511 59.2698 163.53 59.303C163.549 59.3363 163.558 59.3742 163.559 59.4127V66.6327C163.558 66.6712 163.548 66.7089 163.529 66.7421C163.51 66.7753 163.484 66.8029 163.451 66.8222C163.419 66.8411 163.383 66.8509 163.347 66.8506C163.309 66.8505 163.272 66.8408 163.24 66.8222ZM157.529 56.207V62.9216L163.135 66.2537V59.539L157.529 56.207Z" fill="#E0E0E0"/>
<path d="M160.046 63.0351L158.645 59.9778L159.292 59.3398L160.227 61.3927L163.503 58.1396L163.972 59.1472L160.046 63.0351Z" fill="#008753"/>
<path d="M77.1302 34.3353L71.1004 30.7569C71.0686 30.738 71.0423 30.7108 71.024 30.6781C71.0056 30.6454 70.996 30.6083 70.9961 30.5705V23.3506C70.9964 23.3121 71.0065 23.2744 71.0253 23.2411C71.0442 23.2079 71.0711 23.1803 71.1034 23.1611C71.1358 23.1425 71.1722 23.1328 71.2093 23.1328C71.2463 23.1328 71.2827 23.1425 71.3151 23.1611L77.3418 26.7553C77.3738 26.7746 77.4003 26.8024 77.4186 26.8356C77.4369 26.8689 77.4463 26.9065 77.4461 26.9448V34.1521C77.4463 34.1903 77.4369 34.228 77.4186 34.2612C77.4003 34.2945 77.3738 34.3222 77.3418 34.3416C77.3091 34.3612 77.2722 34.372 77.2344 34.3732C77.1971 34.3701 77.1611 34.3571 77.1302 34.3353ZM71.4193 23.7264V30.4442L77.0228 33.7763V27.0711L71.4193 23.7264Z" fill="#E0E0E0"/>
<path d="M74.1243 30.9657L72.7227 27.9085L73.3698 27.2705L74.3052 29.3234L77.5808 26.0703L78.0501 27.0778L74.1243 30.9657Z" fill="#008753"/>
<path d="M86.4775 39.8973L80.457 36.3125C80.4244 36.2943 80.3973 36.2674 80.3784 36.2346C80.3595 36.2018 80.3495 36.1643 80.3496 36.1262V28.9062C80.3493 28.868 80.3588 28.8304 80.3771 28.7971C80.3954 28.7638 80.4219 28.7361 80.4539 28.7167C80.4863 28.6982 80.5227 28.6885 80.5597 28.6885C80.5967 28.6885 80.6332 28.6982 80.6655 28.7167L86.6953 32.3014C86.7281 32.3202 86.7554 32.3477 86.7742 32.381C86.7931 32.4144 86.8029 32.4523 86.8026 32.4909V39.7046C86.8011 39.7622 86.7785 39.8171 86.7392 39.8581C86.6999 39.8991 86.6469 39.9233 86.591 39.9257C86.5514 39.9266 86.5123 39.9168 86.4775 39.8973ZM80.7637 29.2821V35.9999L86.3702 39.3319V32.6141L80.7637 29.2821Z" fill="#E0E0E0"/>
<path d="M95.8177 45.4529L89.7909 41.8714C89.7584 41.8524 89.7313 41.8248 89.7124 41.7915C89.6936 41.7582 89.6836 41.7204 89.6836 41.6819V34.4619C89.6833 34.4237 89.6928 34.386 89.7111 34.3528C89.7294 34.3195 89.7559 34.2918 89.7879 34.2724C89.8202 34.2539 89.8567 34.2441 89.8937 34.2441C89.9307 34.2441 89.9671 34.2539 89.9995 34.2724L96.0293 37.8571C96.0621 37.8758 96.0893 37.9033 96.1082 37.9367C96.1271 37.97 96.1369 38.008 96.1366 38.0466V45.2666C96.1367 45.3047 96.1268 45.3422 96.1079 45.375C96.089 45.4078 96.0618 45.4347 96.0293 45.4529C95.9983 45.4738 95.962 45.4848 95.925 45.4845C95.887 45.4849 95.8497 45.4739 95.8177 45.4529ZM90.1069 34.8377V41.5555L95.7134 44.8876V38.1729L90.1069 34.8377Z" fill="#E0E0E0"/>
<path d="M71.9397 63.8311L55.0005 115.489L53.7891 116.209L70.7313 64.5512L71.9397 63.8311Z" fill="#455A64"/>
<path d="M53.7895 116.209L53.1914 115.855L70.1306 64.1943L70.7317 64.5512L53.7895 116.209Z" fill="#263238"/>
<path d="M70.7317 106.137L70.1306 105.783L53.1914 74.2695L53.7895 74.6233L70.7317 106.137Z" fill="#263238"/>
<path d="M55.0005 73.9033L71.9397 105.417L70.7313 106.137L53.7891 74.6234L55.0005 73.9033Z" fill="#455A64"/>
<path d="M76.1816 86.4989V87.9391L94.3323 77.147V75.71L76.1816 86.4989Z" fill="#455A64"/>
<path d="M76.1819 86.4984V87.9386L53.1914 74.2693V72.8291L76.1819 86.4984Z" fill="#37474F"/>
<path d="M94.3323 77.1465L77.3931 128.807L76.1816 129.524L93.1239 77.8666L94.3323 77.1465Z" fill="#455A64"/>
<path d="M76.1821 129.524L75.584 129.171L92.5232 77.5098L93.1243 77.8667L76.1821 129.524Z" fill="#263238"/>
<path d="M93.1243 119.453L92.5232 119.099L75.584 87.585L76.1821 87.9387L93.1243 119.453Z" fill="#263238"/>
<path d="M77.3931 87.2188L94.3323 118.733L93.1239 119.453L76.1816 87.9389L77.3931 87.2188Z" fill="#455A64"/>
<path d="M71.3421 36.1387L66.4962 39.0191C62.4497 41.4252 59.0898 44.8861 56.7542 49.0537C54.4187 53.2212 53.1899 57.9486 53.1914 62.7603V72.8386L54.3998 73.5587L72.5505 62.7603V36.8619L71.3421 36.1387Z" fill="#008753"/>
<path opacity="0.6" d="M71.3421 36.1387L66.4962 39.0191C62.4497 41.4252 59.0898 44.8861 56.7542 49.0537C54.4187 53.2212 53.1899 57.9486 53.1914 62.7603V72.8386L54.3998 73.5587L72.5505 62.7603V36.8619L71.3421 36.1387Z" fill="white"/>
<path opacity="0.6" d="M55.1562 52.4165L72.5494 62.7601V36.8617L71.341 36.1416L66.4951 39.022C61.3751 42.0653 57.3855 46.7782 55.1562 52.4165Z" fill="white"/>
<path d="M54.3867 73.5496V63.4713C54.3868 58.6608 55.6167 53.9351 57.9528 49.7692C60.2888 45.6034 63.6487 42.1443 67.6946 39.7396L72.5497 36.8623V62.7607L54.3867 73.5496Z" fill="#008753"/>
<path opacity="0.7" d="M54.3867 73.5496V63.4713C54.3868 58.6608 55.6167 53.9351 57.9528 49.7692C60.2888 45.6034 63.6487 42.1443 67.6946 39.7396L72.5497 36.8623V62.7607L54.3867 73.5496Z" fill="white"/>
<path d="M74.974 84.3415L54.4004 72.1092L72.5511 61.3203L93.1247 73.5494L74.974 84.3415Z" fill="#008753"/>
<path opacity="0.8" d="M74.974 84.3415L54.4004 72.1092L72.5511 61.3203L93.1247 73.5494L74.974 84.3415Z" fill="white"/>
<path d="M74.974 85.7818V84.3416L54.4004 72.1094V73.5496L74.974 85.7818Z" fill="#008753"/>
<path opacity="0.6" d="M74.974 85.7818V84.3416L54.4004 72.1094V73.5496L74.974 85.7818Z" fill="white"/>
<path opacity="0.3" d="M61.2266 72.6992L69.6977 77.7368L80.5887 71.2622L72.1176 66.2246L61.2266 72.6992Z" fill="#008753"/>
<path d="M61.2266 72.1875L69.6977 77.2219L80.5887 70.7473L72.1176 65.7129L61.2266 72.1875Z" fill="#FAFAFA"/>
<path d="M75.7461 72.2642C75.734 72.267 75.7214 72.267 75.7093 72.2642L74.5009 71.5441C74.4894 71.5375 74.4798 71.5279 74.4731 71.5163C74.4664 71.5046 74.4629 71.4913 74.4629 71.4778C74.4629 71.4642 74.4664 71.4509 74.4731 71.4393C74.4798 71.4276 74.4894 71.418 74.5009 71.4114L75.7093 70.6913C75.7206 70.685 75.7332 70.6816 75.7461 70.6816C75.7589 70.6816 75.7716 70.685 75.7829 70.6913L77.0097 71.4114C77.0212 71.418 77.0308 71.4276 77.0375 71.4393C77.0441 71.4509 77.0477 71.4642 77.0477 71.4778C77.0477 71.4913 77.0441 71.5046 77.0375 71.5163C77.0308 71.5279 77.0212 71.5375 77.0097 71.5441L75.7829 72.2642C75.7708 72.2674 75.7581 72.2674 75.7461 72.2642ZM74.6849 71.4683L75.7461 72.1L76.8073 71.4683L75.7461 70.8366L74.6849 71.4683Z" fill="#008753"/>
<path d="M73.3261 73.7039H73.2893L72.0809 72.9838C72.0694 72.977 72.0598 72.9674 72.0528 72.9558C72.0459 72.9442 72.0418 72.9311 72.041 72.9175C72.0409 72.9036 72.0445 72.8901 72.0516 72.8783C72.0586 72.8666 72.0688 72.8571 72.0809 72.8511L73.2893 72.131C73.3001 72.1233 73.3129 72.1191 73.3261 72.1191C73.3393 72.1191 73.3521 72.1233 73.3629 72.131L74.5744 72.8511C74.5857 72.8578 74.595 72.8675 74.6015 72.8792C74.608 72.8908 74.6113 72.904 74.6112 72.9175C74.6105 72.9307 74.6068 72.9436 74.6004 72.9551C74.594 72.9666 74.5851 72.9764 74.5744 72.9838L73.3629 73.7039C73.3508 73.7071 73.3382 73.7071 73.3261 73.7039ZM72.2649 72.908L73.3261 73.5397L74.3873 72.908L73.3261 72.2763L72.2649 72.908Z" fill="#008753"/>
<path d="M70.9059 75.1411C70.8938 75.144 70.8812 75.144 70.8691 75.1411L69.6423 74.421C69.631 74.4143 69.6216 74.4047 69.6152 74.393C69.6087 74.3813 69.6054 74.3681 69.6055 74.3547C69.6062 74.3415 69.6099 74.3286 69.6163 74.3171C69.6226 74.3056 69.6316 74.2957 69.6423 74.2884L70.8691 73.5683C70.8804 73.5619 70.893 73.5586 70.9059 73.5586C70.9188 73.5586 70.9314 73.5619 70.9427 73.5683L72.1695 74.2884C72.1802 74.2957 72.1891 74.3056 72.1955 74.3171C72.2019 74.3286 72.2056 74.3415 72.2063 74.3547C72.2064 74.3681 72.2031 74.3813 72.1966 74.393C72.1902 74.4047 72.1808 74.4143 72.1695 74.421L70.9427 75.1411C70.9306 75.1443 70.918 75.1443 70.9059 75.1411ZM69.8447 74.3452L70.9059 74.9769L71.9671 74.3452L70.9059 73.7136L69.8447 74.3452Z" fill="#008753"/>
<path d="M73.9218 70.5548C73.8962 70.5545 73.871 70.548 73.8482 70.5358L70.2169 68.3787C70.1829 68.3576 70.1581 68.3238 70.1478 68.2843C70.1375 68.2449 70.1425 68.2028 70.1617 68.1671C70.1821 68.132 70.2151 68.1066 70.2537 68.0966C70.2922 68.0865 70.333 68.0925 70.3672 68.1134L73.9954 70.2705C74.0242 70.2869 74.0468 70.3127 74.0597 70.3438C74.0725 70.3749 74.0749 70.4096 74.0665 70.4423C74.058 70.4749 74.0392 70.5038 74.013 70.5241C73.9868 70.5445 73.9547 70.5553 73.9218 70.5548Z" fill="#E0E0E0"/>
<path d="M71.5112 71.983C71.4853 71.9815 71.4601 71.974 71.4375 71.9609L67.8093 69.8037C67.7783 69.7818 67.7565 69.7488 67.748 69.7111C67.7395 69.6734 67.7451 69.6338 67.7636 69.6001C67.782 69.5665 67.8121 69.5411 67.8478 69.5291C67.8835 69.5171 67.9223 69.5193 67.9565 69.5353L71.5878 71.6956C71.6046 71.7057 71.6193 71.7191 71.631 71.7351C71.6427 71.7511 71.6512 71.7693 71.6561 71.7886C71.6609 71.808 71.662 71.8282 71.6592 71.848C71.6565 71.8678 71.6499 71.8869 71.64 71.904C71.6276 71.9281 71.609 71.9482 71.5863 71.9621C71.5636 71.9761 71.5376 71.9833 71.5112 71.983Z" fill="#E0E0E0"/>
<path d="M69.1093 73.4042C69.0827 73.4043 69.0564 73.3978 69.0327 73.3852L65.4044 71.2281C65.3704 71.207 65.3456 71.1732 65.3353 71.1337C65.325 71.0943 65.33 71.0522 65.3492 71.0165C65.359 70.9992 65.372 70.9841 65.3875 70.972C65.403 70.96 65.4207 70.9512 65.4395 70.9462C65.4583 70.9412 65.4779 70.9401 65.4972 70.9429C65.5164 70.9458 65.5349 70.9525 65.5516 70.9628L69.1829 73.1199C69.2167 73.1404 69.2414 73.1736 69.2517 73.2126C69.262 73.2515 69.2572 73.2931 69.2382 73.3284C69.2251 73.3516 69.2063 73.3709 69.1837 73.3842C69.1611 73.3975 69.1354 73.4044 69.1093 73.4042Z" fill="#E0E0E0"/>
<path d="M72.5502 36.8584L93.1238 49.0875L91.9124 49.8076L71.3418 37.5753L72.5502 36.8584Z" fill="#008753"/>
<path opacity="0.8" d="M72.5502 36.8584L93.1238 49.0875L91.9124 49.8076L71.3418 37.5753L72.5502 36.8584Z" fill="white"/>
<path d="M71.3418 37.5752V62.0397L91.9124 74.2688V49.8074L71.3418 37.5752Z" fill="#008753"/>
<path opacity="0.6" d="M71.3418 37.5752V62.0397L91.9124 74.2688V49.8074L71.3418 37.5752Z" fill="white"/>
<path d="M93.1233 49.0879L88.2774 51.9683C84.2314 54.3749 80.8718 57.8359 78.5363 62.0034C76.2008 66.1708 74.9718 70.8979 74.9727 75.7096V85.7878L76.1811 86.5048L94.3317 75.7096V49.8112L93.1233 49.0879Z" fill="#008753"/>
<path opacity="0.6" d="M93.1233 49.0879L88.2774 51.9683C84.2314 54.3749 80.8718 57.8359 78.5363 62.0034C76.2008 66.1708 74.9718 70.8979 74.9727 75.7096V85.7878L76.1811 86.5048L94.3317 75.7096V49.8112L93.1233 49.0879Z" fill="white"/>
<path opacity="0.6" d="M76.9395 65.3657L94.3326 75.7093V49.8109L93.1242 49.0908L88.2783 51.9712C83.1589 55.0153 79.1695 59.728 76.9395 65.3657Z" fill="white"/>
<path d="M76.1816 86.4988V76.4205C76.1818 71.61 77.4117 66.8843 79.7477 62.7185C82.0837 58.5526 85.4436 55.0935 89.4895 52.6888L94.3323 49.8115V75.7099L76.1816 86.4988Z" fill="#008753"/>
<path opacity="0.8" d="M76.1816 86.4988V76.4205C76.1818 71.61 77.4117 66.8843 79.7477 62.7185C82.0837 58.5526 85.4436 55.0935 89.4895 52.6888L94.3323 49.8115V75.7099L76.1816 86.4988Z" fill="white"/>
<path d="M84.1136 65.54L83.5646 66.9929V67.814L83.4818 67.8646V67.0339L82.9297 66.238L83.034 66.178L83.4327 66.7686L83.5247 66.9171L83.6106 66.6644L84.0123 65.5969L84.1136 65.54Z" fill="#455A64"/>
<path d="M84.8259 67.0967C84.418 67.3367 84.2125 67.0967 84.2125 66.465C84.1905 66.1996 84.2353 65.9328 84.3428 65.6904C84.4503 65.4481 84.6167 65.2384 84.8259 65.0817C85.2338 64.8416 85.4393 65.1164 85.4393 65.7133C85.4644 65.9791 85.4209 66.247 85.3132 66.4899C85.2055 66.7329 85.0374 66.9422 84.8259 67.0967ZM84.8259 65.2017C84.6414 65.3418 84.4949 65.5284 84.4004 65.7435C84.3059 65.9586 84.2665 66.195 84.2861 66.4303C84.2861 66.9103 84.4395 67.2262 84.8259 66.9925C85.0093 66.8572 85.1555 66.6751 85.2501 66.4642C85.3447 66.2533 85.3845 66.0207 85.3657 65.7891C85.3657 65.3122 85.2185 64.9711 84.8259 65.1985V65.2017Z" fill="#455A64"/>
<path d="M86.8128 63.9385V64.9997C86.8128 65.6061 86.6349 66.0198 86.2546 66.2472C85.8743 66.4746 85.6934 66.2725 85.6934 65.6661V64.6017L85.7731 64.5544V65.6282C85.7731 66.1114 85.908 66.3483 86.2546 66.143C86.423 66.0241 86.5566 65.86 86.6409 65.6685C86.7253 65.477 86.7571 65.2653 86.7331 65.0565V63.9859L86.8128 63.9385Z" fill="#455A64"/>
<path d="M88.2297 65.0467L88.1377 65.1036L87.9659 64.693C87.8892 64.5035 87.7727 64.4624 87.5703 64.5825L87.193 64.8067V65.65L87.1133 65.6973V63.7455L87.6929 63.4012C87.9383 63.2559 88.1254 63.3191 88.1254 63.6918C88.126 63.8259 88.099 63.9585 88.0461 64.081C87.9932 64.2035 87.9157 64.3131 87.8187 64.4024C87.9291 64.4024 87.9997 64.4814 88.0457 64.5888L88.2297 65.0467ZM87.6991 63.5118L87.19 63.8276V64.6898V64.7088L87.6807 64.4182C87.7923 64.3497 87.8848 64.2526 87.9493 64.1364C88.0138 64.0202 88.048 63.8888 88.0487 63.755C88.0487 63.4328 87.8954 63.3918 87.6991 63.5118Z" fill="#455A64"/>
<path d="M80.4858 75.2487L79.3418 71.5345L80.2159 71.0165L80.7097 72.8073C80.906 73.5116 80.9857 73.8053 80.9888 73.8211H81.0041C81.0041 73.799 81.0839 73.4137 81.2771 72.4978L81.777 70.0974L82.6082 69.6016L81.4642 74.677L80.4858 75.2487Z" fill="#008753"/>
<path d="M84.3353 68.4764C85.3168 67.8953 86.0252 68.4164 86.0252 69.7587C86.0252 71.101 85.3168 72.4654 84.3353 73.0465C83.3539 73.6277 82.6484 73.1097 82.6484 71.7832C82.6484 70.4567 83.3569 69.0765 84.3353 68.4764ZM84.3353 72.0485C84.6256 71.8479 84.8621 71.5752 85.0229 71.2556C85.1837 70.9359 85.2637 70.5797 85.2554 70.2198C85.2554 69.4271 84.869 69.1555 84.3353 69.4681C84.0441 69.67 83.8071 69.9443 83.6463 70.2657C83.4854 70.587 83.4059 70.9449 83.4152 71.3063C83.4213 72.0896 83.8047 72.3643 84.3353 72.0485Z" fill="#008753"/>
<path d="M87.9298 67.4091V70.8232L87.1631 71.2812V67.8639L86.1816 68.4482V67.4691L88.9082 65.8457V66.8279L87.9298 67.4091Z" fill="#008753"/>
<path d="M89.3066 65.6023L91.6376 64.2158V65.1949L90.0734 66.1235V66.8783L91.2266 66.1929V67.071L90.0734 67.7563V68.5585L91.6621 67.611V68.5933L89.3066 69.9924V65.6023Z" fill="#008753"/>
<path d="M82.5833 77.3359L82.5067 77.3801V75.6746L82.4085 76.0662L81.9393 77.7433L81.4669 76.6189L81.3688 76.3505V78.0623L81.2891 78.1065V76.1547L81.3627 76.1136L81.8687 77.3169L81.9423 77.5096L82.0129 77.2316L82.522 75.4251L82.5925 75.3809L82.5833 77.3359Z" fill="#455A64"/>
<path d="M84.0591 76.4578L83.9701 76.5115L83.8076 76.0914L83.0102 76.5652L82.8507 77.1747L82.7617 77.2284L83.3751 74.9134L83.4457 74.8691L84.0591 76.4578ZM83.78 75.9967L83.4733 75.1723L83.4365 75.0239L83.3935 75.2166L83.0868 76.4167V76.4357L83.78 75.9967Z" fill="#455A64"/>
<path d="M85.0595 74.0134L84.5442 74.3292V76.1642L84.4645 76.2116V74.3735L83.9492 74.6893V74.5882L85.0595 73.9092V74.0134Z" fill="#455A64"/>
<path d="M86.2302 73.3184L85.715 73.6342V75.4692L85.6352 75.5166V73.6658L85.123 73.9816V73.8774L86.221 73.2236L86.2302 73.3184Z" fill="#455A64"/>
<path d="M87.3807 74.4841L86.4238 75.0526V73.1007L87.3807 72.5322V72.6365L86.4944 73.1607V73.9566V73.9724L87.2949 73.4955V73.5997L86.4944 74.0767V74.8757V74.8915L87.3807 74.3641V74.4841Z" fill="#455A64"/>
<path d="M88.7687 73.6561L88.6767 73.713L88.505 73.3024C88.4283 73.1129 88.3118 73.0718 88.1093 73.1918L87.7321 73.4161V74.2593L87.6523 74.3067V72.3549L88.232 72.0106C88.4774 71.8653 88.6645 71.9285 88.6645 72.3012C88.6651 72.4352 88.638 72.5679 88.5852 72.6904C88.5323 72.8129 88.4548 72.9224 88.3578 73.0118C88.4682 73.0118 88.5418 73.0908 88.5847 73.1981L88.7687 73.6561ZM88.2381 72.1243L87.729 72.4244V73.2866V73.3055L88.2197 73.015C88.3314 72.9464 88.4239 72.8493 88.4884 72.7331C88.5529 72.6169 88.5871 72.4855 88.5878 72.3517C88.5878 72.0422 88.4314 72.0074 88.2381 72.1243Z" fill="#455A64"/>
<path d="M89.4101 73.2992C89.3331 73.3591 89.2411 73.3951 89.1449 73.4029C89.0487 73.4108 88.9524 73.3901 88.8672 73.3434L88.9316 73.2171C89.004 73.2621 89.0876 73.2844 89.172 73.281C89.2565 73.2776 89.3382 73.2488 89.407 73.1982C89.5311 73.1357 89.6373 73.0412 89.7152 72.9239C89.7932 72.8065 89.8402 72.6703 89.8517 72.5286C89.8517 72.3517 89.7536 72.2601 89.545 72.3043L89.2843 72.358C89.0267 72.4054 88.8887 72.358 88.8887 72.1054C88.9011 71.9375 88.9553 71.7758 89.0461 71.6358C89.1369 71.4959 89.2612 71.3824 89.407 71.3063C89.4742 71.2529 89.5553 71.2214 89.64 71.2158C89.7247 71.2101 89.8091 71.2307 89.8824 71.2747L89.821 71.3979C89.7608 71.3546 89.689 71.3313 89.6155 71.3313C89.542 71.3313 89.4703 71.3546 89.4101 71.3979C89.2912 71.4566 89.1886 71.5453 89.112 71.6557C89.0353 71.7661 88.9869 71.8947 88.9715 72.0296C88.9715 72.238 89.1125 72.2475 89.3364 72.2033L89.5757 72.1559C89.8456 72.1054 89.9437 72.2317 89.9437 72.4496C89.9383 72.6279 89.8858 72.8012 89.7917 72.9509C89.6977 73.1006 89.5657 73.2211 89.4101 73.2992Z" fill="#455A64"/>
<path d="M89.9805 61.9834L90.2105 62.4856L90.7258 62.2834L90.3516 63.0004L90.4406 63.651L89.9805 63.5942L89.5204 64.1974L89.6094 63.4426L89.2383 63.1678L89.7505 62.7604L89.9805 61.9834Z" fill="#008753"/>
<path d="M81.132 67.2451L80.902 68.0221L80.3867 68.4295L80.7578 68.7043L80.672 69.4591L81.132 68.8559L81.589 68.9127L81.5031 68.2621L81.8742 67.5452L81.362 67.7473L81.132 67.2451Z" fill="#008753"/>
<path d="M119.231 120.65L107.456 157.559L106.297 158.25L118.071 121.339L119.231 120.65Z" fill="#455A64"/>
<path d="M106.296 158.25L105.723 157.909L117.494 121.001L118.071 121.339L106.296 158.25Z" fill="#263238"/>
<path d="M122.543 148.589L121.97 148.251L110.367 125.485L110.944 125.826L122.543 148.589Z" fill="#263238"/>
<path d="M112.103 125.135L123.705 147.9L122.546 148.589L110.943 125.823L112.103 125.135Z" fill="#455A64"/>
<path d="M102.986 110.992L91.2121 147.901L90.0527 148.589L101.827 111.681L102.986 110.992Z" fill="#455A64"/>
<path d="M90.054 148.588L89.4805 148.25L101.255 111.339L101.828 111.68L90.054 148.588Z" fill="#263238"/>
<path d="M106.299 138.931L105.726 138.59L94.123 115.824L94.6996 116.165L106.299 138.931Z" fill="#263238"/>
<path d="M95.8586 115.474L107.461 138.239L106.299 138.931L94.6992 116.165L95.8586 115.474Z" fill="#455A64"/>
<path d="M105.14 129.964L86.5723 118.925L106.299 107.195L124.87 118.234L105.14 129.964Z" fill="#455A64"/>
<path d="M105.141 131.344V129.963L124.871 118.233V119.614L105.141 131.344Z" fill="#37474F"/>
<path d="M105.14 131.344V129.964L86.5723 118.926L86.5784 120.3L105.14 131.344Z" fill="#263238"/>
<path d="M105.15 128.583V112.027L89.3359 102.656V119.212L105.15 128.583Z" fill="#008753"/>
<path d="M105.148 112.027L122.109 101.937V118.496L105.148 128.583V112.027Z" fill="#008753"/>
<path opacity="0.15" d="M105.148 112.027L122.109 101.937V118.496L105.148 128.583V112.027Z" fill="white"/>
<path d="M105.149 112.027L88.8906 102.391L106.296 92.0352L122.551 101.671L105.149 112.027Z" fill="#008753"/>
<path opacity="0.3" d="M105.149 112.027L88.8906 102.391L106.296 92.0352L122.551 101.671L105.149 112.027Z" fill="white"/>
<path d="M105.149 112.028V114.984L88.8906 105.351V102.392L105.149 112.028Z" fill="#008753"/>
<path d="M122.551 101.671L105.148 112.027V114.983L122.551 104.63V101.671Z" fill="#008753"/>
<path opacity="0.15" d="M122.551 101.671L105.148 112.027V114.983L122.551 104.63V101.671Z" fill="white"/>
<path opacity="0.1" d="M89.3516 105.613V106.263L105.165 115.634V114.983L89.3516 105.613ZM122.126 104.893L105.165 114.999V115.65L122.126 105.543V104.893Z" fill="black"/>
<path d="M100.496 103.746L102.818 105.126L110.942 100.294L108.621 98.917L100.496 103.746Z" fill="#008753"/>
<path opacity="0.2" d="M110.363 100.641L110.943 100.294L108.621 98.917L108.624 99.6118L110.363 100.641Z" fill="black"/>
<path opacity="0.1" d="M101.079 104.09L108.621 99.6055V98.917L100.496 103.746L101.079 104.09Z" fill="black"/>
<path d="M108.765 121.61L107.67 118.048L108.507 117.552L108.98 119.267C109.17 119.943 109.243 120.214 109.246 120.24H109.262C109.262 120.218 109.338 119.848 109.522 118.976L110.001 116.674L110.798 116.2L109.703 121.067L108.765 121.61Z" fill="#FAFAFA"/>
<path d="M112.457 115.116C113.396 114.561 114.074 115.06 114.074 116.348C114.074 117.637 113.396 118.941 112.457 119.506C111.519 120.072 110.838 119.563 110.838 118.278C110.838 116.992 111.519 115.675 112.457 115.116ZM112.457 118.543C112.735 118.35 112.961 118.088 113.114 117.781C113.267 117.474 113.343 117.132 113.334 116.787C113.334 116.029 112.966 115.767 112.457 116.067C112.179 116.261 111.953 116.524 111.799 116.833C111.646 117.141 111.571 117.483 111.58 117.829C111.58 118.581 111.948 118.846 112.457 118.543Z" fill="#FAFAFA"/>
<path d="M115.905 114.09V117.365L115.166 117.804V114.529L114.23 115.088V114.141L116.841 112.587V113.534L115.905 114.09Z" fill="#FAFAFA"/>
<path d="M117.225 112.369L119.46 111.039V111.987L117.961 112.877V113.6L119.065 112.944V113.787L117.961 114.444V115.214L119.494 114.308V115.255L117.237 116.598L117.225 112.369Z" fill="#FAFAFA"/>
<path d="M110.675 99.3085L109.945 100.875L102.818 105.126L101.33 104.242L105.323 95.5596L110.675 99.3085Z" fill="#FAFAFA"/>
<path d="M65.8121 134.186C66.0514 134.164 66.0575 134.764 65.9072 135.052C65.484 135.879 64.3001 136.77 62.5672 137.164C60.8344 137.559 57.4453 137.089 56.4332 137.048C55.421 137.007 53.633 137.547 52.6086 137.714C50.7438 138.03 49.4679 137.493 48.8576 136.877C48.7573 136.752 48.6829 136.607 48.6391 136.451C48.5954 136.295 48.5831 136.132 48.603 135.971C48.6214 135.241 48.6828 135.093 48.7625 135.099L65.8121 134.186Z" fill="#37474F"/>
<path d="M48.9502 132.971C48.7712 133.835 48.7154 134.721 48.7846 135.602C49.0024 136.145 49.579 136.454 50.039 136.603C51.2658 136.998 52.4558 136.919 53.7961 136.628C54.6594 136.4 55.5488 136.294 56.4399 136.312C57.5011 136.372 59.8412 136.628 60.9055 136.628C61.8987 136.643 62.8843 136.448 63.8008 136.053C64.5031 135.715 65.5674 134.973 65.8066 134.411C66.0366 133.1 65.9048 132.317 65.1717 131.884C64.4387 131.451 63.2824 131.319 61.7489 131.199C61.2919 131.164 60.7123 131.136 60.4669 131.107C59.5468 131.003 58.6727 130.934 57.9704 130.886C57.3718 130.891 56.7797 130.759 56.2375 130.498C55.9876 130.383 55.7855 130.18 55.667 129.926C55.5198 129.591 55.5229 129.102 55.2376 129.073C55.2376 129.073 49.993 129.992 49.5698 130.037C49.0852 130.087 49.4041 130.81 48.9502 132.971Z" fill="#455A64"/>
<path d="M60.8803 131.06C61.0389 131.188 61.1704 131.348 61.2667 131.53C61.3726 131.729 61.453 131.942 61.5059 132.162C61.5765 132.437 61.2452 132.478 61.1164 132.162C61.0205 131.898 60.8949 131.647 60.7422 131.413C60.6327 131.25 60.471 131.132 60.2852 131.079L60.0215 131.05C60.092 130.854 60.6748 130.921 60.8803 131.06Z" fill="#FAFAFA"/>
<path d="M58.5118 130.776C58.6001 130.763 58.69 130.77 58.7753 130.797C58.8606 130.824 58.9392 130.869 59.0056 130.93C59.1778 131.081 59.3062 131.278 59.3767 131.499C59.4684 131.764 59.5391 132.037 59.5884 132.314C59.6068 132.491 59.2019 132.484 59.159 132.292C59.116 132.099 59.024 131.748 58.9504 131.549C58.9044 131.426 58.6959 130.962 58.4168 130.918H58.291C58.291 130.855 58.3677 130.814 58.4229 130.801C58.4516 130.789 58.4814 130.781 58.5118 130.776Z" fill="#FAFAFA"/>
<path d="M57.1233 130.731C57.2428 130.755 57.3509 130.819 57.43 130.914C57.5246 131.044 57.5981 131.189 57.6478 131.344C57.7315 131.626 57.7728 131.92 57.7705 132.215C57.7705 132.443 57.3718 132.383 57.3595 132.215C57.3166 131.735 57.3166 131.42 57.0927 131.069C57.0089 130.916 56.8898 130.787 56.7461 130.693C56.7461 130.652 56.8166 130.646 56.8565 130.655C56.9467 130.676 57.0358 130.701 57.1233 130.731Z" fill="#FAFAFA"/>
<path d="M48.9805 124.219C48.9805 124.219 49.4344 129.187 49.5479 130.333C49.5847 130.7 50.2594 130.848 50.606 131.003C51.0389 131.169 51.442 131.408 51.7991 131.71C52.6793 132.61 53.3326 132.822 53.8754 131.243C53.8932 131.167 53.9265 131.095 53.9731 131.033C54.0198 130.971 54.0787 130.92 54.146 130.883C54.2133 130.846 54.2875 130.825 54.3635 130.82C54.4395 130.815 54.5157 130.827 54.587 130.854C54.8827 130.959 55.195 131.004 55.5071 130.987C55.5531 130.955 55.5255 130.883 55.5071 130.835C55.3705 130.66 55.2723 130.456 55.2193 130.238C55.1664 130.02 55.1599 129.793 55.2004 129.572C55.3507 127.538 55.4335 125.501 55.547 123.464L48.9805 124.219Z" fill="#FFBDA7"/>
<path d="M32.0859 120.573C32.6993 119.547 32.9048 117.639 33.3526 114.096L39.0236 117.106L36.5975 123.239C36.4974 123.505 36.4205 123.78 36.3675 124.06C35.6774 125.068 32.0859 120.573 32.0859 120.573Z" fill="#FFBDA7"/>
<path d="M30.2043 122.769C30.2043 122.709 30.1797 122.222 30.2043 122.165C30.3361 121.644 30.649 121.499 31.0508 121.218C31.4537 120.938 31.8232 120.611 32.1518 120.242C32.2868 120.049 32.3113 119.951 32.5199 119.863C32.8756 119.715 33.44 119.702 34.1515 120.084C35.3078 120.716 35.6605 121.461 35.593 122.276C35.544 122.908 35.4918 123.722 36.0255 124.092C36.2463 124.247 36.596 123.252 36.596 123.252C36.9241 123.82 36.4641 124.604 36.2218 125.75C36.0831 126.384 36.0726 127.041 36.1911 127.68C36.3077 128.687 36.4426 128.681 36.9609 128.754C37.4087 128.814 38.6785 128.725 39.4483 129.281C40.5125 130.045 40.2273 131.062 40.2273 131.062C40.0893 131.451 38.933 133.327 34.7067 132.626C33.4799 132.424 30.9035 130.44 30.9434 130.254C30.9649 130.064 30.9649 129.872 30.9434 129.682C30.9434 129.24 30.9097 128.795 30.8913 128.349C30.9048 127.927 30.8802 127.504 30.8177 127.086C30.7407 126.741 30.6884 126.391 30.6613 126.038C30.5815 125.144 30.4987 124.25 30.419 123.356C30.3883 123.084 30.1583 123.018 30.2043 122.769Z" fill="#455A64"/>
<path d="M29.6699 122.589C29.2528 123.003 29.5073 124.21 30.0655 125.656C30.314 126.288 30.774 127.399 30.6391 128.574C30.5041 129.749 30.4796 130.302 30.774 130.855C31.2341 131.714 33.6908 132.816 35.1384 133.16C34.2625 131.897 33.7521 130.405 33.6662 128.855C33.519 126.262 33.3289 124.592 32.1787 123.445C30.7219 121.989 29.6699 122.589 29.6699 122.589Z" fill="black"/>
<path d="M40.2266 131.05C40.2266 131.05 39.3801 132.686 36.1107 132.629C34.8225 132.607 34.1355 131.963 34.1018 129.948C34.065 127.519 33.8748 125.068 33.1142 123.865C32.3536 122.662 31.136 122.074 30.1944 122.159C29.9739 122.229 29.7867 122.381 29.6699 122.586C29.6699 122.586 30.6115 122.27 32.0806 123.533C33.1633 124.459 33.4546 126.392 33.4393 128.792C33.4393 129.825 33.3718 131.003 33.6663 131.78C33.8015 132.124 34.0131 132.431 34.2842 132.676C34.5553 132.922 34.8783 133.098 35.2274 133.192C37.0032 133.703 39.4353 132.857 40.0518 132.083C40.1551 131.936 40.2246 131.766 40.2549 131.587C40.2851 131.408 40.2755 131.225 40.2266 131.05Z" fill="#37474F"/>
<path d="M36.2915 128.299C36.4239 128.395 36.5176 128.538 36.5552 128.7C36.569 128.907 36.5285 129.114 36.4378 129.3C36.3472 129.486 36.2098 129.643 36.04 129.755C35.8437 129.881 35.6719 129.837 35.9847 129.411C36.1859 129.077 36.2922 128.692 36.2915 128.299Z" fill="#FAFAFA"/>
<path d="M36.1224 127.042C36.1224 127.042 36.2267 127.111 36.2543 127.449C36.2543 127.629 35.9936 128.359 35.6409 128.533C35.2882 128.706 35.4845 128.296 35.6409 128.097C35.8772 127.787 36.0419 127.427 36.1224 127.042Z" fill="#FAFAFA"/>
<path d="M36.2389 125.655C36.2389 125.655 36.3524 125.687 36.2389 126.151C36.0759 126.438 35.8243 126.66 35.5243 126.783C35.3035 126.808 35.1961 126.694 35.4691 126.492C35.6776 126.344 36.199 125.88 36.2389 125.655Z" fill="#FAFAFA"/>
<path d="M38.3561 119.453C38.3561 119.453 39.3958 116.942 43.0977 108.417C44.2172 105.837 44.5086 103.923 44.7907 102.657C45.0974 101.34 46.3488 94.8492 46.3488 94.8492L47.9621 105.644C47.649 107.045 47.4571 108.472 47.3885 109.908C47.3885 111.689 47.6063 114.396 48.097 118.069C48.8454 123.682 49.0478 126.597 49.0478 126.597C49.4312 126.881 50.6488 127.434 52.7282 127.314C53.6788 127.213 54.6059 126.947 55.4701 126.527C55.4701 126.527 55.9425 120.688 56.1388 116.616C56.3197 112.858 56.6203 108.61 56.7736 106.342C57.0803 102.085 57.1601 100.25 57.203 93.5385C57.2459 86.5901 56.7307 76.3444 56.7307 76.3444L37.5587 75.8896C37.5587 75.8896 36.2981 78.789 36.6846 84.7835C36.5343 90.6359 35.6909 101.775 35.6909 101.775C34.6358 104.41 33.9531 107.187 33.6636 110.022C33.3814 112.789 32.9551 116.433 32.9551 116.433C34.9977 116.357 37.2305 117.716 38.3561 119.453Z" fill="#008753"/>
<path opacity="0.2" d="M46.3648 94.9063L45.3067 87.1715C45.3067 87.1715 42.8193 86.9725 39.832 84.4111C39.832 84.4111 40.2246 86.7041 44.4632 88.2706L45.5704 96.3212L44.7669 102.872C44.7669 102.872 46.3464 95.0547 46.3648 94.9063Z" fill="black"/>
<path d="M61.3184 68.7329L61.9839 68.8497L62.3795 69.4214C62.3212 69.5499 62.291 69.6901 62.291 69.832C62.291 69.9739 62.3212 70.114 62.3795 70.2426C62.585 70.6626 62.8825 70.53 62.8825 70.53L63.1892 69.7688L63.3119 68.7108L62.4746 67.9496L61.6527 67.7822L61.3184 68.7329Z" fill="#B16668"/>
<path d="M63.7359 68.3848C63.8233 68.6832 63.8339 68.9999 63.7665 69.3038C63.6934 69.5786 63.5991 69.8468 63.4844 70.1061C63.3985 70.2924 63.0611 70.2924 62.8526 69.825C62.6808 69.4397 62.9231 68.5806 62.9231 68.5806L63.7359 68.3848Z" fill="#F0997A"/>
<path d="M64.989 67.3242C65.081 67.8106 65.3632 68.7234 65.4153 69.0771C65.4675 69.4308 65.0411 69.3929 65.0411 69.3929L64.0352 67.9022L64.989 67.3242Z" fill="#F0997A"/>
<path d="M61.2168 63.7072C61.6677 63.5177 61.6584 63.5114 62.278 63.8493C63.1191 64.3334 63.922 64.8847 64.6795 65.498C65.0966 65.8833 64.9862 66.6318 64.9862 67.2761C64.9862 67.9204 65.0997 68.6153 64.9862 68.7953C64.9709 68.8211 64.9507 68.8434 64.9268 68.8609C64.9029 68.8784 64.8758 68.8908 64.8472 68.8973C64.8186 68.9038 64.7889 68.9042 64.7601 68.8987C64.7313 68.8931 64.7039 68.8815 64.6795 68.8648L61.2168 63.7072Z" fill="#FFBDA7"/>
<path d="M65.1465 69.5342L65.6863 71.4734C65.6892 71.4859 65.6884 71.499 65.6839 71.511C65.6794 71.523 65.6714 71.5333 65.6611 71.5405C65.6507 71.5477 65.6385 71.5515 65.626 71.5513C65.6136 71.5512 65.6014 71.5472 65.5912 71.5397L64.0117 70.3396L65.1465 69.5342Z" fill="#FFA8A7"/>
<path d="M65.6004 71.5435L64.0117 70.3402L64.6251 69.917L64.7631 70.1223L65.6434 71.4835L65.6004 71.5435Z" fill="#F28F8F"/>
<path d="M65.591 71.5401C65.6012 71.5475 65.6133 71.5515 65.6258 71.5517C65.6383 71.5518 65.6505 71.548 65.6608 71.5408C65.6712 71.5336 65.6791 71.5233 65.6836 71.5113C65.6881 71.4993 65.689 71.4862 65.6861 71.4737L65.5787 71.0947C65.5504 71.1529 65.5064 71.2014 65.452 71.2345C65.3976 71.2675 65.3351 71.2837 65.272 71.2811H65.2383L65.591 71.5401Z" fill="#263238"/>
<path d="M58.5527 62.2353L58.657 62.3869L58.7797 62.5732L64.012 70.3396C64.2277 70.3841 64.4517 70.3447 64.6408 70.2291C64.7717 70.1641 64.8858 70.0681 64.9738 69.949C65.0617 69.8299 65.121 69.691 65.1468 69.5437L59.9084 61.7805L59.6691 61.4268C59.8194 61.6668 58.6969 62.4722 58.5527 62.2353Z" fill="#455A64"/>
<path d="M58.5527 62.2356L58.657 62.3872L58.7797 62.5735L64.012 70.3399C64.1434 70.3659 64.2786 70.3622 64.4084 70.3289C64.5382 70.2957 64.6593 70.2337 64.7635 70.1472L59.3164 61.9703C59.3379 61.9545 59.3379 61.9419 59.3164 61.9355C59.022 62.1724 58.6325 62.3682 58.5527 62.2356Z" fill="#37474F"/>
<path d="M58.9414 62.8195L59.1745 63.1606C59.2389 63.2617 59.4812 63.1796 59.7388 63.0311C60.0731 62.8385 60.3829 62.4847 60.297 62.3489L60.1283 62.0962L60.067 62.0078C60.1498 62.1436 59.84 62.4974 59.5057 62.69C59.2634 62.8321 59.0242 62.9143 58.9506 62.829L58.9414 62.8195Z" fill="#EBEBEB"/>
<path d="M58.9867 62.905C59.137 63.1419 60.2596 62.327 60.1123 62.0933L59.9068 61.749C60.0541 61.9859 58.9315 62.7976 58.7812 62.5607L58.9867 62.905Z" fill="#37474F"/>
<path d="M58.5527 62.2354L58.7797 62.5733C58.9238 62.807 60.0065 62.0332 59.9176 61.7805L59.6845 61.4395C59.8194 61.6669 58.6969 62.4722 58.5527 62.2354Z" fill="#EBEBEB"/>
<path d="M58.0673 61.5345L58.5488 62.2356C58.6102 62.3367 58.8555 62.2546 59.107 62.1093C59.4413 61.9166 59.7572 61.5629 59.6744 61.4271L59.1898 60.7228C58.9966 60.4354 58.3863 60.7701 58.1286 61.1302C58.0802 61.1834 58.0484 61.2505 58.0374 61.3226C58.0265 61.3947 58.0369 61.4685 58.0673 61.5345Z" fill="#F28F8F"/>
<path opacity="0.1" d="M58.5339 61.5853C58.6893 61.5334 58.8308 61.445 58.9474 61.3272C59.0639 61.2093 59.1523 61.0653 59.2056 60.9063C59.2162 60.8678 59.2175 60.8273 59.2095 60.7883C59.2014 60.7492 59.1843 60.7127 59.1596 60.682C58.9357 60.4736 58.3744 60.7894 58.1321 61.1305C58.0848 61.183 58.0534 61.2488 58.042 61.3195C58.0305 61.3903 58.0395 61.4629 58.0677 61.5284C58.1413 61.6358 58.3162 61.6643 58.5339 61.5853Z" fill="black"/>
<path d="M61.3362 66.37C61.8054 66.8658 62.3299 67.0016 63.2347 67.2575C63.6623 67.4312 64.0673 67.6594 64.44 67.9365C64.7988 68.186 64.9675 68.6471 64.2805 68.9756C63.8205 69.1967 63.2377 68.9219 62.747 68.824C62.5014 68.7759 62.2516 68.7547 62.0017 68.7608C61.2902 68.805 61.1675 69.0388 60.3639 69.2251C59.5604 69.4114 58.9194 69.2062 58.4716 69.2851C58.0238 69.3641 47.5714 72.5887 47.5714 72.5887L47.4609 66.5879C47.4609 66.5879 56.1989 65.912 57.6067 65.6625C58.7476 65.4572 60.0971 64.4971 60.0971 64.4971L61.3362 66.37Z" fill="#FFBDA7"/>
<path d="M58.4866 65.3906C58.1988 65.5173 57.8985 65.6115 57.591 65.6717C56.1833 65.9212 47.4453 66.5971 47.4453 66.5971L47.5557 72.598C47.5557 72.598 58.0082 69.3765 58.4559 69.2943C58.5579 69.2836 58.6607 69.2836 58.7626 69.2943L58.4866 65.3906Z" fill="#F0997A"/>
<path d="M63.6834 65.6688C63.6126 65.7697 63.5096 65.8418 63.3924 65.8724C63.2752 65.903 63.1513 65.8902 63.0424 65.8362C62.8584 65.7351 62.248 65.2393 62.248 65.2393L63.7816 67.5038C63.7317 67.3048 63.7391 67.0952 63.803 66.9005C63.8484 66.831 63.9067 66.7715 63.9747 66.7254C64.0426 66.6793 64.1187 66.6476 64.1987 66.6321C64.0269 66.6045 63.8512 66.6427 63.7049 66.7395C63.5941 66.6778 63.4992 66.5898 63.4282 66.4826C63.3572 66.3754 63.3122 66.2523 63.297 66.1236C63.6895 65.8425 63.6834 65.6688 63.6834 65.6688Z" fill="#F0997A"/>
<path d="M37.423 51.2482C36.1533 53.7465 36.2484 56.5764 36.6164 60.0916C36.9538 63.3194 37.19 65.3218 37.4783 69.3171C37.8248 73.8683 37.2114 76.7487 37.2114 76.7487C37.2114 76.7487 39.7847 80.4282 45.3114 81.8778C55.0217 84.4235 57.0704 81.1293 57.0704 81.1293C57.0704 81.1293 56.9846 77.6551 56.9968 74.9548C56.9968 72.5197 56.9539 69.6361 56.8741 67.2389C56.6871 61.7339 56.6257 57.1607 56.0062 55.1993C55.5492 54.1129 55.0707 53.6833 53.9022 53.1369C52.9391 52.6853 51.102 51.7694 49.731 51.223C47.2107 50.2842 44.6453 49.4789 42.0451 48.81C41.1264 48.6955 40.1954 48.8665 39.3718 49.301C38.5482 49.7354 37.8696 50.4136 37.423 51.2482Z" fill="#37474F"/>
<path d="M50.4357 48.8101L49.7364 51.223C48.0864 51.2767 44.3415 50.5914 43.5625 49.8176L44.2833 46.9688L50.4357 48.8101Z" fill="#FFBDA7"/>
<path d="M55.9392 41.9434C55.9392 41.9434 56.574 42.654 56.7765 44.7448L55.5497 45.3765C55.43 43.9015 55.3074 42.4076 55.9392 41.9434Z" fill="#F0997A"/>
<path d="M54.1203 35.8574C56.1323 36.3848 56.8806 38.4693 55.7335 42.7804C55.8746 47.4769 54.243 49.015 53.5866 49.4982C52.1819 49.9594 50.8631 49.8141 49.1854 49.0213C47.9065 48.3897 44.6861 46.7189 43.6648 44.2838C42.438 41.4066 42.7048 37.4302 44.7505 36.3216C47.6029 34.7456 53.056 35.5794 54.1203 35.8574Z" fill="#FFBDA7"/>
<path d="M53.966 46.4314C53.9895 46.4425 54.0104 46.4586 54.0274 46.4787C54.0274 46.4787 54.0274 46.5135 54.0519 46.5293C54.0705 46.5661 54.091 46.602 54.1132 46.6366C54.1621 46.7111 54.2198 46.779 54.285 46.8388C54.4069 46.9451 54.5433 47.0324 54.6898 47.0978C54.6952 47.1002 54.6998 47.1042 54.7031 47.1092C54.7064 47.1142 54.7082 47.1201 54.7083 47.1262C54.712 47.1329 54.714 47.1405 54.714 47.1483C54.714 47.1561 54.712 47.1637 54.7083 47.1704C54.6776 47.1957 54.6224 47.1704 54.5856 47.1704C54.5433 47.1588 54.5022 47.1429 54.4629 47.123C54.3775 47.0813 54.2973 47.0293 54.2237 46.9683C54.152 46.9097 54.0881 46.8418 54.0335 46.7661C54.0061 46.7292 53.9815 46.6901 53.9599 46.6493L53.9292 46.5924C53.9168 46.5567 53.9168 46.5176 53.9292 46.4819C53.9292 46.4819 53.9415 46.4187 53.966 46.4314Z" fill="#F0997A"/>
<path d="M53.571 49.4952C53.1999 49.7636 51.2799 50.01 50.1973 49.672L50.4488 48.8066C51.4541 49.1819 52.5046 49.4135 53.571 49.4952Z" fill="#F0997A"/>
<path d="M53.6912 38.9682C53.6449 39.3242 53.4903 39.6559 53.2496 39.9157C52.9105 40.2755 52.4583 40.4993 51.9737 40.5474C52.1607 41.1599 52.2038 41.8094 52.0994 42.4424C52.0801 42.6436 52.002 42.8341 51.8755 42.9888C51.8333 43.0462 51.7762 43.0902 51.7108 43.1159C51.6454 43.1416 51.5744 43.1479 51.5057 43.1341C51.437 43.1202 51.3735 43.0869 51.3223 43.0377C51.2711 42.9886 51.2343 42.9257 51.2161 42.8561C51.1283 42.4925 50.9996 42.1406 50.8328 41.8075C50.6103 41.4099 50.2532 41.1107 49.8298 40.9674C48.2258 40.4937 47.7504 43.1119 48.2472 44.1258C49.06 45.7807 50.1059 45.0164 50.1059 45.0164C50.1059 45.0164 50.2562 47.3599 48.5079 48.0326C48.5079 48.0326 45.7844 48.4495 44.2141 47.2178C42.9873 45.2533 41.8464 43.0456 41.6102 41.2738C41.0949 37.4174 42.2236 35.2287 43.8767 34.9129C44.3337 33.5516 45.7568 32.92 47.0664 32.702C48.8453 32.3862 50.3696 33.2516 52.081 33.5611C52.9581 33.7207 53.8589 33.6732 54.7156 33.4221C55.0959 33.3116 55.559 33.179 55.8381 33.4569C55.9444 33.5729 56.0139 33.7194 56.0375 33.8769C56.0935 34.1552 56.0852 34.443 56.0133 34.7174C55.9413 34.9917 55.8078 35.2447 55.6234 35.4561C56.1295 35.2129 56.8963 35.5067 57.2858 35.9551C57.8409 36.5868 57.8317 37.2406 57.4483 38.0649C57.2091 38.5545 55.8443 40.0641 53.6912 38.9682Z" fill="#263238"/>
<path d="M43.9033 35.2829L42.5078 34.0764C42.6668 33.8868 42.8922 33.7697 43.1347 33.7508C43.3772 33.7318 43.6172 33.8126 43.8021 33.9753C43.8934 34.0534 43.9686 34.1495 44.0233 34.2581C44.078 34.3666 44.111 34.4852 44.1204 34.6071C44.1299 34.729 44.1155 34.8515 44.0782 34.9676C44.0409 35.0836 43.9815 35.1908 43.9033 35.2829Z" fill="#263238"/>
<path d="M71.6919 78.6208C71.33 78.2481 70.9681 77.9165 70.6675 77.6228C70.4191 77.3796 70.0971 77.0448 69.545 76.4195C69.3119 76.151 69.0543 76.2837 68.5697 76.1194C68.0851 75.9552 68.2292 75.5604 67.9256 75.4119C67.5698 75.2351 67.4472 75.3456 67.1036 75.1814C66.6804 74.9824 66.4626 74.515 65.9443 74.714C65.0089 75.0708 64.7175 75.5162 63.4201 74.2876C60.2243 71.2461 58.2553 69.3037 58.2553 69.3037C58.2553 69.3037 57.6419 60.9752 57.3904 59.0549C57.0376 56.4493 57.1174 54.6332 53.8081 53.5215C53.8081 53.5215 51.1551 54.7848 51.3544 59.7276C51.5354 64.0009 52.02 68.2109 52.2746 70.2702C52.48 72.0073 52.7806 72.2252 54.8938 73.7286C60.0832 77.4238 60.8837 78.0144 61.537 78.4471C62.4142 79.0282 63.3189 79.7105 64.2973 79.7768C65.1959 79.8242 66.4841 79.2178 67.1128 78.864C68.1219 78.2987 68.9531 78.0049 69.2751 78.0871C69.5971 78.1692 70.1952 78.8261 70.8086 78.9967C71.422 79.1672 71.8698 78.8008 71.6919 78.6208Z" fill="#FFBDA7"/>
<path d="M53.9082 53.1367C55.4417 53.8537 56.0551 54.2295 56.8587 55.5781C57.3892 56.4688 57.4721 57.4352 57.7021 59.7977C57.8953 61.8632 58.1621 65.7985 58.1621 65.7985C58.1621 65.7985 57.8186 66.746 55.5889 67.4945C54.3011 67.9493 52.9004 67.9326 51.6232 67.4472C51.6232 67.4472 51.1846 63.3255 51.0344 61.62C50.8289 59.3081 50.6602 54.8643 53.9082 53.1367Z" fill="#008753"/>
<path d="M111.345 33.1255L120.307 38.4631C120.482 38.5705 120.614 38.8263 120.614 39.319V50.5975C120.614 50.5217 120.47 50.7775 120.292 50.8786L119.019 51.6239C118.919 51.6753 118.81 51.7021 118.698 51.7021C118.587 51.7021 118.477 51.6753 118.378 51.6239L109.416 46.2863C109.325 46.2221 109.25 46.137 109.197 46.0378C109.144 45.9386 109.114 45.8279 109.109 45.7147V34.4362C109.115 34.3219 109.148 34.2107 109.204 34.1119C109.26 34.013 109.338 33.9293 109.431 33.8677L110.704 33.1224C110.804 33.0722 110.914 33.0463 111.025 33.0469C111.136 33.0474 111.246 33.0743 111.345 33.1255Z" fill="#008753"/>
<path opacity="0.2" d="M118.391 51.6209C118.49 51.6716 118.6 51.698 118.711 51.698C118.822 51.698 118.932 51.6716 119.032 51.6209L120.304 50.8755C120.482 50.7745 120.626 50.5186 120.626 50.5944V39.3192C120.655 39.1029 120.62 38.8827 120.525 38.6875L118.615 39.8182C118.676 39.9193 118.71 40.0361 118.71 39.8592V51.1345C118.71 51.6241 118.578 51.7346 118.391 51.6209Z" fill="black"/>
<path opacity="0.3" d="M109.111 34.3767C109.139 34.2093 109.271 34.1525 109.418 34.2441L118.377 39.5848C118.472 39.6445 118.549 39.7297 118.601 39.8312L120.511 38.7005C120.459 38.6036 120.383 38.522 120.291 38.4636L111.332 33.126C111.232 33.0746 111.123 33.0479 111.011 33.0479C110.9 33.0479 110.79 33.0746 110.691 33.126L109.418 33.8714C109.336 33.9294 109.266 34.0042 109.214 34.0911C109.161 34.1781 109.126 34.2753 109.111 34.3767Z" fill="white"/>
<path d="M121.503 47.3977C121.702 47.2746 123.236 46.3871 123.285 46.3555C123.321 46.3306 123.351 46.2981 123.374 46.2603C123.397 46.2225 123.412 46.1801 123.417 46.1359C123.423 46.0918 123.42 46.0469 123.408 46.0041C123.395 45.9614 123.374 45.9219 123.346 45.888L120.635 42.6729L118.709 43.8099L121.555 46.9366C121.583 46.9697 121.603 47.0083 121.616 47.05C121.628 47.0917 121.632 47.1356 121.627 47.1789C121.622 47.2222 121.609 47.2641 121.587 47.3017C121.566 47.3394 121.537 47.3721 121.503 47.3977Z" fill="#008753"/>
<path opacity="0.3" d="M121.503 47.3977C121.702 47.2746 123.236 46.3871 123.285 46.3555C123.321 46.3306 123.351 46.2981 123.374 46.2603C123.397 46.2225 123.412 46.1801 123.417 46.1359C123.423 46.0918 123.42 46.0469 123.408 46.0041C123.395 45.9614 123.374 45.9219 123.346 45.888L120.635 42.6729L118.709 43.8099L121.555 46.9366C121.583 46.9697 121.603 47.0083 121.616 47.05C121.628 47.0917 121.632 47.1356 121.627 47.1789C121.622 47.2222 121.609 47.2641 121.587 47.3017C121.566 47.3394 121.537 47.3721 121.503 47.3977Z" fill="white"/>
<path d="M109.429 34.2466L118.39 39.5842C118.481 39.6476 118.556 39.732 118.61 39.8308C118.663 39.9296 118.693 40.0398 118.697 40.1527V43.8101L121.556 46.9368C121.594 46.9772 121.621 47.0281 121.633 47.0837C121.644 47.1393 121.64 47.1971 121.621 47.2503C121.602 47.3035 121.568 47.3499 121.524 47.3839C121.479 47.4179 121.427 47.4381 121.372 47.4422L118.706 47.24V51.4312C118.706 51.6396 118.565 51.7249 118.4 51.6207L109.438 46.2831C109.347 46.2189 109.272 46.1338 109.219 46.0346C109.166 45.9353 109.136 45.8247 109.131 45.7114V34.4361C109.11 34.2245 109.254 34.1393 109.429 34.2466Z" fill="#008753"/>
<path d="M112.878 46.1315H112.786C112.672 46.1151 112.564 46.0699 112.472 45.9999C112.379 45.9299 112.305 45.8373 112.256 45.7304L111.151 43.3363C111.074 43.1663 111.065 42.9714 111.127 42.7946C111.188 42.6178 111.316 42.4736 111.481 42.3936C111.646 42.3136 111.835 42.3044 112.007 42.3681C112.179 42.4318 112.319 42.5631 112.397 42.7331L113.05 44.1259L116.206 40.3359C116.328 40.1918 116.5 40.1036 116.686 40.0905C116.871 40.0775 117.054 40.1408 117.193 40.2664C117.333 40.3921 117.419 40.5698 117.432 40.7605C117.444 40.9513 117.383 41.1393 117.261 41.2834L113.412 45.8978C113.345 45.9744 113.262 46.0351 113.17 46.0754C113.078 46.1158 112.978 46.1349 112.878 46.1315Z" fill="#FAFAFA"/>
</svg>
